<?xml version="1.0" encoding="UTF-8" standalone="no"?>
<!-- Created with Inkscape (http://www.inkscape.org/) -->

<svg
   width="138.55299mm"
   height="138.55299mm"
   viewBox="0 0 138.55299 138.55299"
   version="1.1"
   id="svg5"
   inkscape:export-filename="C:\xampp\htdocs\quotle\favicon.ico"
   inkscape:export-xdpi="46.930779"
   inkscape:export-ydpi="46.930779"
   inkscape:version="1.1.1 (3bf5ae0d25, 2021-09-20)"
   sodipodi:docname="favicon.svg"
   xmlns:inkscape="http://www.inkscape.org/namespaces/inkscape"
   xmlns:sodipodi="http://sodipodi.sourceforge.net/DTD/sodipodi-0.dtd"
   xmlns="http://www.w3.org/2000/svg"
   xmlns:svg="http://www.w3.org/2000/svg">
  <sodipodi:namedview
     id="namedview7"
     pagecolor="#ffffff"
     bordercolor="#666666"
     borderopacity="1.0"
     inkscape:pageshadow="2"
     inkscape:pageopacity="0.0"
     inkscape:pagecheckerboard="0"
     inkscape:document-units="mm"
     showgrid="false"
     inkscape:zoom="0.99744001"
     inkscape:cx="160.91193"
     inkscape:cy="226.07876"
     inkscape:window-width="1920"
     inkscape:window-height="1017"
     inkscape:window-x="-8"
     inkscape:window-y="-8"
     inkscape:window-maximized="1"
     inkscape:current-layer="layer1" />
  <defs
     id="defs2" />
  <g
     inkscape:label="Ebene 1"
     inkscape:groupmode="layer"
     id="layer1"
     transform="translate(-38.147846,-56.05761)">
    <path
       id="rect1080"
       style="fill:#ffffff;stroke:#ff7f2a;stroke-width:65.0079;stroke-miterlimit:4;stroke-dasharray:none"
       d="m 218.85547,307.5293 c -22.7197,0 -41.00977,18.29006 -41.00977,41.00976 v 250.33008 c 0,22.7197 18.29007,41.00977 41.00977,41.00977 h 204.46875 l 0,45.19583 102.29883,-45.19583 h 67.54883 c 22.7197,0 41.00976,-18.29007 41.00976,-41.00977 V 348.53906 c 0,-22.7197 -18.29006,-41.00976 -41.00976,-41.00976 z"
       transform="scale(0.26458333)"
       sodipodi:nodetypes="sssscccsssss" />
    <path
       style="fill:#000000;stroke-width:1"
       d="m 48.526589,170.01194 -0.647279,-0.76924 0.10897,-12.98608 c 0.100661,-11.99481 0.148793,-13.19883 0.630634,-15.77348 0.611669,-3.26846 1.448516,-6.12807 2.440037,-8.33799 1.709302,-3.80971 4.741653,-7.48145 7.767197,-9.40496 2.685782,-1.7075 6.607197,-2.85974 9.732632,-2.85974 2.882578,0 3.113737,0.50387 3.113737,6.78677 0,6.25508 -0.03243,6.32141 -3.434692,7.01676 -3.390317,0.69292 -5.50895,4.69061 -5.947624,11.22266 l -0.142425,2.12087 h 3.804869 c 4.430939,0 5.056845,0.18692 5.483289,1.63751 0.180911,0.61538 0.242428,4.13294 0.19109,10.92709 l -0.07567,10.01957 -0.680066,0.58475 -0.680075,0.58476 H 59.682554 49.173886 Z m 31.368655,0.14319 -0.587613,-0.62606 0.0083,-12.76568 c 0.0083,-12.2369 0.0317,-12.8962 0.567432,-15.91668 1.519496,-8.56683 4.795401,-14.47122 9.885473,-17.81732 3.057599,-2.00998 6.728435,-3.14894 10.149049,-3.14894 1.278705,0 1.656295,0.0994 2.220735,0.58453 l 0.68007,0.58452 0.0745,5.1489 c 0.0956,6.60766 0.0242,6.81356 -2.5257,7.27637 -3.792865,0.68842 -5.685254,3.55411 -6.528185,9.88583 -0.548376,4.11917 -0.966328,3.66691 3.388751,3.66691 2.057651,0 4.015734,0.10439 4.351314,0.23198 1.35403,0.5148 1.38186,0.76997 1.30745,11.9917 l -0.0682,10.27945 -0.58761,0.62528 -0.58762,0.62527 H 91.062954 80.482545 Z m 32.814366,-39.95235 -0.68008,-0.58497 v -5.5891 c 0,-5.42485 0.0156,-5.60467 0.52998,-6.11908 0.34787,-0.34787 0.99499,-0.59308 1.88321,-0.71362 4.0814,-0.55386 6.05303,-4.05815 6.77429,-12.04041 l 0.13689,-1.5149 h -3.73746 c -2.0556,0 -4.01203,-0.10439 -4.3476,-0.23197 -1.35403,-0.51481 -1.38185,-0.76997 -1.30746,-11.991699 l 0.0682,-10.27946 0.58762,-0.625274 0.58761,-0.625274 h 10.58042 10.58041 l 0.58762,0.625274 0.58761,0.625274 0.0753,10.342625 c 0.1014,13.928704 -0.32975,19.027304 -2.04772,24.215534 -3.09321,9.34141 -10.19498,15.09203 -18.63806,15.09203 -1.27918,0 -1.65607,-0.0993 -2.22073,-0.58498 z m 31.59494,0.32855 c -0.93964,-0.58422 -1.12862,-1.67767 -1.12862,-6.53034 0,-5.9342 0.30854,-6.78276 2.46851,-6.78913 1.12492,-0.003 3.12095,-0.99008 3.91741,-1.93662 1.61236,-1.91618 2.69045,-5.31457 2.97963,-9.39248 l 0.159,-2.24206 h -3.80478 c -4.43155,0 -5.05753,-0.18699 -5.48189,-1.63751 -0.17914,-0.61232 -0.24131,-4.166772 -0.19109,-10.927058 l 0.0743,-10.019526 0.68007,-0.584792 0.68008,-0.584791 h 10.50865 10.50866 l 0.64743,0.769413 0.64742,0.769422 -0.0993,12.864709 c -0.0933,12.080763 -0.13286,13.049343 -0.64979,15.894513 -0.30275,1.66639 -0.8238,3.90238 -1.15789,4.96889 -2.46392,7.86536 -7.62792,13.3158 -14.25137,15.04188 -1.91332,0.49862 -5.91245,0.70481 -6.5065,0.33548 z"
       id="path958" />
  </g>
</svg>
