<?xml version="1.0" encoding="UTF-8" standalone="no"?>
<!-- Created with Inkscape (http://www.inkscape.org/) -->

<svg
   width="65.417244mm"
   height="13.524291mm"
   viewBox="0 0 65.417242 13.524291"
   version="1.1"
   id="svg5"
   inkscape:export-filename="C:\xampp\htdocs\quotle\favicon.ico"
   inkscape:export-xdpi="46.930779"
   inkscape:export-ydpi="46.930779"
   inkscape:version="1.1.1 (3bf5ae0d25, 2021-09-20)"
   sodipodi:docname="Header.svg"
   xmlns:inkscape="http://www.inkscape.org/namespaces/inkscape"
   xmlns:sodipodi="http://sodipodi.sourceforge.net/DTD/sodipodi-0.dtd"
   xmlns="http://www.w3.org/2000/svg"
   xmlns:svg="http://www.w3.org/2000/svg">
  <sodipodi:namedview
     id="namedview7"
     pagecolor="#ffffff"
     bordercolor="#666666"
     borderopacity="1.0"
     inkscape:pageshadow="2"
     inkscape:pageopacity="0.0"
     inkscape:pagecheckerboard="0"
     inkscape:document-units="mm"
     showgrid="false"
     inkscape:zoom="1.4594273"
     inkscape:cx="207.95829"
     inkscape:cy="-46.251021"
     inkscape:window-width="1920"
     inkscape:window-height="1017"
     inkscape:window-x="-8"
     inkscape:window-y="-8"
     inkscape:window-maximized="1"
     inkscape:current-layer="layer1" />
  <defs
     id="defs2" />
  <g
     inkscape:label="Ebene 1"
     inkscape:groupmode="layer"
     id="layer1"
     transform="translate(30.005638,-149.66493)">
    <g
       id="g4015"
       transform="matrix(0.11113151,0,0,0.11113151,15.808684,141.57835)">
      <path
         id="rect1080"
         style="fill:#ffffff;stroke:#ff7f2a;stroke-width:65.0079;stroke-miterlimit:4;stroke-dasharray:none"
         d="m 218.85547,307.5293 c -22.7197,0 -41.00977,18.29006 -41.00977,41.00976 v 250.33008 c 0,22.7197 18.29007,41.00977 41.00977,41.00977 h 204.46875 v 45.19583 l 102.29883,-45.19583 h 67.54883 c 22.7197,0 41.00976,-18.29007 41.00976,-41.00977 V 348.53906 c 0,-22.7197 -18.29006,-41.00976 -41.00976,-41.00976 z"
         transform="scale(0.26458333)"
         sodipodi:nodetypes="sssscccsssss" />
      <path
         style="fill:#000000;stroke-width:1"
         d="m 48.526589,170.01194 -0.647279,-0.76924 0.10897,-12.98608 c 0.100661,-11.99481 0.148793,-13.19883 0.630634,-15.77348 0.611669,-3.26846 1.448516,-6.12807 2.440037,-8.33799 1.709302,-3.80971 4.741653,-7.48145 7.767197,-9.40496 2.685782,-1.7075 6.607197,-2.85974 9.732632,-2.85974 2.882578,0 3.113737,0.50387 3.113737,6.78677 0,6.25508 -0.03243,6.32141 -3.434692,7.01676 -3.390317,0.69292 -5.50895,4.69061 -5.947624,11.22266 l -0.142425,2.12087 h 3.804869 c 4.430939,0 5.056845,0.18692 5.483289,1.63751 0.180911,0.61538 0.242428,4.13294 0.19109,10.92709 l -0.07567,10.01957 -0.680066,0.58475 -0.680075,0.58476 H 59.682554 49.173886 Z m 31.368655,0.14319 -0.587613,-0.62606 0.0083,-12.76568 c 0.0083,-12.2369 0.0317,-12.8962 0.567432,-15.91668 1.519496,-8.56683 4.795401,-14.47122 9.885473,-17.81732 3.057599,-2.00998 6.728435,-3.14894 10.149049,-3.14894 1.278705,0 1.656295,0.0994 2.220735,0.58453 l 0.68007,0.58452 0.0745,5.1489 c 0.0956,6.60766 0.0242,6.81356 -2.5257,7.27637 -3.792865,0.68842 -5.685254,3.55411 -6.528185,9.88583 -0.548376,4.11917 -0.966328,3.66691 3.388751,3.66691 2.057651,0 4.015734,0.10439 4.351314,0.23198 1.35403,0.5148 1.38186,0.76997 1.30745,11.9917 l -0.0682,10.27945 -0.58761,0.62528 -0.58762,0.62527 H 91.062954 80.482545 Z m 32.814366,-39.95235 -0.68008,-0.58497 v -5.5891 c 0,-5.42485 0.0156,-5.60467 0.52998,-6.11908 0.34787,-0.34787 0.99499,-0.59308 1.88321,-0.71362 4.0814,-0.55386 6.05303,-4.05815 6.77429,-12.04041 l 0.13689,-1.5149 h -3.73746 c -2.0556,0 -4.01203,-0.10439 -4.3476,-0.23197 -1.35403,-0.51481 -1.38185,-0.76997 -1.30746,-11.991699 l 0.0682,-10.27946 0.58762,-0.625274 0.58761,-0.625274 h 10.58042 10.58041 l 0.58762,0.625274 0.58761,0.625274 0.0753,10.342625 c 0.1014,13.928704 -0.32975,19.027304 -2.04772,24.215534 -3.09321,9.34141 -10.19498,15.09203 -18.63806,15.09203 -1.27918,0 -1.65607,-0.0993 -2.22073,-0.58498 z m 31.59494,0.32855 c -0.93964,-0.58422 -1.12862,-1.67767 -1.12862,-6.53034 0,-5.9342 0.30854,-6.78276 2.46851,-6.78913 1.12492,-0.003 3.12095,-0.99008 3.91741,-1.93662 1.61236,-1.91618 2.69045,-5.31457 2.97963,-9.39248 l 0.159,-2.24206 h -3.80478 c -4.43155,0 -5.05753,-0.18699 -5.48189,-1.63751 -0.17914,-0.61232 -0.24131,-4.166772 -0.19109,-10.927058 l 0.0743,-10.019526 0.68007,-0.584792 0.68008,-0.584791 h 10.50865 10.50866 l 0.64743,0.769413 0.64742,0.769422 -0.0993,12.864709 c -0.0933,12.080763 -0.13286,13.049343 -0.64979,15.894513 -0.30275,1.66639 -0.8238,3.90238 -1.15789,4.96889 -2.46392,7.86536 -7.62792,13.3158 -14.25137,15.04188 -1.91332,0.49862 -5.91245,0.70481 -6.5065,0.33548 z"
         id="path958" />
    </g>
    <g
       aria-label="Quotle"
       id="text3337"
       style="font-size:16.3892px;line-height:1.25;stroke-width:0.264584">
      <path
         d="m -18.594017,155.58681 q 0,2.12867 -1.160369,3.66516 -1.184375,1.5765 -3.233025,2.01664 0.400127,0.81626 1.192378,1.49647 0.07202,0.056 0.07202,0.10404 0,0.3201 -1.968625,0.3201 -1.448459,0 -1.784566,-0.11204 -0.184058,-0.064 -0.232074,-0.29609 -0.09603,-0.46415 -0.06402,-1.54449 -1.960622,-0.48816 -3.112988,-2.06466 -1.120355,-1.52848 -1.120355,-3.58513 0,-2.48879 1.600508,-4.18533 1.632518,-1.73655 4.105302,-1.73655 2.45678,0 4.0973,1.74455 1.608511,1.70454 1.608511,4.17733 z m -3.032963,-0.016 q 0,-1.23239 -0.712226,-2.05665 -0.752238,-0.86428 -1.960622,-0.86428 -1.248396,0 -1.976627,0.85628 -0.696221,0.80825 -0.696221,2.08066 0,1.29641 0.680216,2.08066 0.712226,0.83226 1.992632,0.83226 1.240394,0 1.976627,-0.85627 0.696221,-0.81626 0.696221,-2.07266 z"
         style="font-family:'Berlin Sans FB Demi';-inkscape-font-specification:'Berlin Sans FB Demi, Normal'"
         id="path4106" />
      <path
         d="m -9.2230441,153.91428 q 0,0.59218 -0.056018,1.77656 -0.056018,1.18437 -0.056018,1.77656 0,0.57619 0.040013,1.72855 0.040013,1.15237 0.040013,1.72055 0,0.21607 -0.2000635,0.27208 -0.3040965,0.08 -1.2884093,0.08 -0.872276,0 -1.216385,-0.048 -0.152049,-0.024 -0.192061,-0.19206 -0.02401,-0.24007 -0.04802,-0.48015 -0.04001,-0.36812 -0.112035,-0.36812 0.112035,0 -0.808257,0.54418 -0.920292,0.54417 -1.67253,0.54417 -2.120673,0 -2.512798,-1.91261 -0.176055,-0.88828 -0.176055,-2.57682 0,-1.82457 0.296093,-2.88091 0.08803,-0.3281 0.328105,-0.3281 0.368116,0 1.120355,0.008 0.752239,0.008 1.120356,0.008 0.248078,0 0.248078,0.20807 0,0.056 -0.016,0.16805 -0.168053,1.08835 -0.168053,2.2087 0,1.39244 0.08803,1.90461 0.144045,0.88027 1.048332,0.88027 0.352112,0 0.760242,-0.31209 0.416132,-0.3121 0.432137,-0.64821 0.016,-0.29609 0.016,-4.01727 0,-0.26409 0.04001,-0.3121 0.04801,-0.08 0.288091,-0.08 0.392124,0 1.176373,0.008 0.7922516,0.008 1.184376,0.008 0.2400762,0 0.2800889,0.12003 0.016005,0.064 0.016005,0.19207 z"
         style="font-family:'Berlin Sans FB Demi';-inkscape-font-specification:'Berlin Sans FB Demi, Normal'"
         id="path4108" />
      <path
         d="m -0.20418146,157.25133 q 0,1.82458 -1.12035544,2.96094 -1.112353,1.13636 -2.9289294,1.13636 -1.7605586,0 -2.8969192,-1.12035 -1.1363605,-1.12036 -1.1363605,-2.88092 0,-1.85658 1.0883453,-3.00895 1.0883453,-1.16037 2.9449344,-1.16037 1.8085739,0 2.9289294,1.13636 1.12035544,1.12836 1.12035544,2.93693 z m -2.62483284,0 q 0,-0.6322 -0.3921244,-1.11235 -0.3921244,-0.48815 -1.0163225,-0.48815 -0.6322006,0 -1.0403301,0.49615 -0.3841219,0.46415 -0.3841219,1.10435 0,0.64821 0.3841219,1.11236 0.4081295,0.49615 1.0403301,0.49615 0.6241981,0 1.0323276,-0.49615 0.3761193,-0.46415 0.3761193,-1.11236 z"
         style="font-family:'Berlin Sans FB Demi';-inkscape-font-specification:'Berlin Sans FB Demi, Normal'"
         id="path4110" />
      <path
         d="m 6.1178226,158.84384 q 0,0.24008 -0.06402,0.72823 -0.056018,0.48816 -0.056018,0.72023 0,0.22407 -0.048015,0.28809 -0.048015,0.064 -0.2640838,0.18406 -1.0323276,0.56818 -2.2887262,0.56818 -2.3127338,0 -2.3127338,-1.76856 0,-0.52817 0.040013,-1.5845 0.040013,-1.06434 0.040013,-1.59251 0,-0.35211 -0.40812953,-0.35211 -0.0320102,0 -0.10403301,0 -0.0720229,0.008 -0.10403301,0.008 -0.30409649,0 -0.30409649,-0.21607 0,-0.12804 0.0160051,-0.39212 0.0240076,-0.26409 0.0240076,-0.39213 0,-0.16805 -0.0240076,-0.51216 -0.0160051,-0.34411 -0.0160051,-0.51216 0,-0.16005 0.51216251,-0.17606 0.28809143,-0.008 0.31209903,-0.16005 0.048015,-0.30409 0.03201,-0.9603 -0.03201,-1.03233 -0.03201,-0.98432 0,-0.92829 0.1760559,-0.92829 0.2160685,0 0.6161955,0.096 0.4561447,0.10403 0.6322006,0.12004 0.4081295,0.056 1.232391,0.15205 0.2000635,0.016 0.2000635,0.13604 0,0.3201 -0.056018,0.96831 -0.048015,0.6482 -0.048015,0.97631 0,0.39212 0.2320736,0.39212 0.2800889,0 0.8482692,-0.024 0.5681802,-0.024 0.8562716,-0.024 0.1760559,0 0.1760559,0.12003 0,0.18406 -0.040013,0.55218 -0.040013,0.36812 -0.040013,0.55217 0,0.19207 0.008,0.56018 0.008,0.36812 0.008,0.56018 0,0.16805 -0.2320736,0.16805 -0.1600508,0 -0.5361702,-0.008 -0.3761193,-0.016 -0.5361701,-0.016 H 3.9651396 q -0.1200381,0 -0.1200381,0.35211 0,0.19206 0,0.56818 0.008,0.38412 0.008,0.56818 0,0.67221 0.1520483,0.92829 0.2160685,0.34411 0.8482691,0.34411 0.2000635,0 0.5681803,-0.088 0.3761193,-0.096 0.5281676,-0.096 0.1680533,0 0.1680533,0.17606 z"
         style="font-family:'Berlin Sans FB Demi';-inkscape-font-specification:'Berlin Sans FB Demi, Normal'"
         id="path4112" />
      <path
         d="m 9.8710141,156.37105 q 0,2.1847 0.016005,3.35307 0,0.18406 0.024008,0.6322 0.024008,0.40813 0.024008,0.6322 0,0.16805 -0.2000635,0.20006 -0.3601143,0.064 -1.2964113,0.064 -0.9603047,0 -1.2243885,-0.064 -0.1760559,-0.04 -0.2000635,-0.21607 0,-0.024 0,-0.3441 0,-0.71223 0.016005,-2.12868 0.016005,-1.42445 0.016005,-2.12868 0,-3.36106 0.008,-3.06497 -0.024008,-1.76856 -0.2000635,-3.04897 -0.016005,-0.088 -0.016005,-0.13604 0,-0.17605 0.2080661,-0.17605 h 2.8569064 q 0.2000638,0 0.1840588,0.16805 l -0.008,0.14404 q -0.2080659,3.4571 -0.2080659,6.11394 z"
         style="font-family:'Berlin Sans FB Demi';-inkscape-font-specification:'Berlin Sans FB Demi, Normal'"
         id="path4114" />
      <path
         d="m 18.665804,156.8432 q 0,0.80826 -0.520165,0.9203 -0.08803,0.016 -1.656526,0.17605 -0.9443,0.10404 -2.816894,0.24808 0.112036,0.52017 0.680216,0.79225 0.464147,0.22407 1.056335,0.22407 0.712226,0 1.432455,-0.38412 0.304096,-0.19206 0.608193,-0.38412 0.168053,0.08 0.560177,0.81626 0.400127,0.73623 0.400127,0.9363 0,0.056 -0.120038,0.18405 -0.976309,1.04834 -3.032962,1.04834 -1.904604,0 -3.072975,-1.11236 -1.200381,-1.12835 -1.200381,-3.01695 0,-1.84059 1.07234,-3.01696 1.104351,-1.21639 2.92893,-1.21639 1.536487,0 2.608827,1.12036 1.072341,1.12035 1.072341,2.66484 z m -2.800889,-0.48815 q 0,-0.49616 -0.352112,-0.87228 -0.352111,-0.37612 -0.840266,-0.37612 -0.50416,0 -0.832264,0.42414 -0.304097,0.39212 -0.304097,0.92029 0,0.21607 0.224071,0.21607 0.592188,0 1.840584,-0.18406 0.264084,-0.04 0.264084,-0.12804 z"
         style="font-family:'Berlin Sans FB Demi';-inkscape-font-specification:'Berlin Sans FB Demi, Normal'"
         id="path4116" />
    </g>
  </g>
</svg>
